REM DIRINDEX 1\2,1\3,1\4,1\5
REM DIRNAME "folder01","folder02","folder03","folder04","folder05"
TITLE ""
FILE "P1Q_t_1068-1077.mp3" MP3
  TRACK 01 AUDIO
    TITLE "3:cjc173_4161"
    INDEX 01 00:00:00
  TRACK 02 AUDIO
    TITLE "0:"
    INDEX 01 00:01:22
  TRACK 03 AUDIO
    TITLE "4:cjc173_4162"
    INDEX 01 00:01:45
  TRACK 04 AUDIO
    TITLE "0:"
    INDEX 01 00:04:10
  TRACK 05 AUDIO
    TITLE "5:cjc173_4163"
    INDEX 01 00:04:30
  TRACK 06 AUDIO
    TITLE "0:"
    INDEX 01 00:08:37
  TRACK 07 AUDIO
    TITLE "3:cjc173_4164"
    INDEX 01 00:09:09
  TRACK 08 AUDIO
    TITLE "0:"
    INDEX 01 00:10:19
  TRACK 09 AUDIO
    TITLE "4:cjc173_4165"
    INDEX 01 00:10:38
  TRACK 10 AUDIO
    TITLE "0:"
    INDEX 01 00:14:67
  TRACK 11 AUDIO
    TITLE "5:cjc173_4166"
    INDEX 01 00:15:12
  TRACK 12 AUDIO
    TITLE "0:"
    INDEX 01 00:19:53
  TRACK 13 AUDIO
    TITLE "3:cjc173_4167"
    INDEX 01 00:20:27
  TRACK 14 AUDIO
    TITLE "0:"
    INDEX 01 00:21:34
  TRACK 15 AUDIO
    TITLE "4:cjc173_4168"
    INDEX 01 00:21:58
  TRACK 16 AUDIO
    TITLE "0:"
    INDEX 01 00:23:41
  TRACK 17 AUDIO
    TITLE "5:cjc173_4169"
    INDEX 01 00:23:60
  TRACK 18 AUDIO
    TITLE "0:"
    INDEX 01 00:27:13
  TRACK 19 AUDIO
    TITLE "3:cjc173_4170"
    INDEX 01 00:27:60
  TRACK 20 AUDIO
    TITLE "0:"
    INDEX 01 00:29:08
  TRACK 21 AUDIO
    TITLE "4:cjc173_4171"
    INDEX 01 00:29:28
  TRACK 22 AUDIO
    TITLE "0:"
    INDEX 01 00:32:08
  TRACK 23 AUDIO
    TITLE "5:cjc173_4172"
    INDEX 01 00:32:28
  TRACK 24 AUDIO
    TITLE "0:"
    INDEX 01 00:37:08
  TRACK 25 AUDIO
    TITLE "3:cjc173_4173"
    INDEX 01 00:37:53
  TRACK 26 AUDIO
    TITLE "0:"
    INDEX 01 00:39:04
  TRACK 27 AUDIO
    TITLE "4:cjc173_4174"
    INDEX 01 00:39:28
  TRACK 28 AUDIO
    TITLE "0:"
    INDEX 01 00:42:46
  TRACK 29 AUDIO
    TITLE "5:cjc173_4175"
    INDEX 01 00:42:66
  TRACK 30 AUDIO
    TITLE "0:"
    INDEX 01 00:47:10
  TRACK 31 AUDIO
    TITLE "3:cjc173_4176"
    INDEX 01 00:47:55
  TRACK 32 AUDIO
    TITLE "0:"
    INDEX 01 00:48:62
  TRACK 33 AUDIO
    TITLE "4:cjc173_4177"
    INDEX 01 00:49:09
  TRACK 34 AUDIO
    TITLE "0:"
    INDEX 01 00:50:57
  TRACK 35 AUDIO
    TITLE "5:cjc173_4178"
    INDEX 01 00:51:02
  TRACK 36 AUDIO
    TITLE "0:"
    INDEX 01 00:55:51
  TRACK 37 AUDIO
    TITLE "3:cjc173_4179"
    INDEX 01 00:56:21
  TRACK 38 AUDIO
    TITLE "0:"
    INDEX 01 00:57:36
  TRACK 39 AUDIO
    TITLE "4:cjc173_4180"
    INDEX 01 00:57:55
  TRACK 40 AUDIO
    TITLE "0:"
    INDEX 01 01:00:48
  TRACK 41 AUDIO
    TITLE "5:cjc173_4181"
    INDEX 01 01:00:67
  TRACK 42 AUDIO
    TITLE "0:"
    INDEX 01 01:04:40
  TRACK 43 AUDIO
    TITLE "3:cjc173_4182"
    INDEX 01 01:04:61
  TRACK 44 AUDIO
    TITLE "0:"
    INDEX 01 01:06:03
  TRACK 45 AUDIO
    TITLE "4:cjc173_4183"
    INDEX 01 01:06:50
  TRACK 46 AUDIO
    TITLE "0:"
    INDEX 01 01:09:11
  TRACK 47 AUDIO
    TITLE "5:cjc173_4184"
    INDEX 01 01:09:31
  TRACK 48 AUDIO
    TITLE "0:"
    INDEX 01 01:13:50
  TRACK 49 AUDIO
    TITLE "3:cjc173_4185"
    INDEX 01 01:14:20
  TRACK 50 AUDIO
    TITLE "0:"
    INDEX 01 01:15:28
  TRACK 51 AUDIO
    TITLE "4:cjc173_4186"
    INDEX 01 01:15:49
  TRACK 52 AUDIO
    TITLE "0:"
    INDEX 01 01:19:41
  TRACK 53 AUDIO
    TITLE "5:cjc173_4187"
    INDEX 01 01:19:61
  TRACK 54 AUDIO
    TITLE "0:"
    INDEX 01 01:23:68
  TRACK 55 AUDIO
    TITLE "3:cjc173_4188"
    INDEX 01 01:24:40
  TRACK 56 AUDIO
    TITLE "0:"
    INDEX 01 01:25:50
  TRACK 57 AUDIO
    TITLE "4:cjc173_4189"
    INDEX 01 01:25:69
  TRACK 58 AUDIO
    TITLE "0:"
    INDEX 01 01:28:26
  TRACK 59 AUDIO
    TITLE "5:cjc173_4190"
    INDEX 01 01:28:46
  TRACK 60 AUDIO
    TITLE "0:"
    INDEX 01 01:33:28
